<svg id="Layer_1" data-name="Layer 1" xmlns="http://www.w3.org/2000/svg" viewBox="0 0 1332.5 27.2"><defs><style>.cls-1{fill:red;}.cls-2{fill:blue;}</style></defs><rect class="cls-1" width="1332.5" height="25.63"/><path class="cls-2" d="M29.4,373.6h2.9l6.6,18.5H36.6l-1.8-5.3h-8L25,392.1H22.6Zm-1.9,11.3h6.7L32,378.6,30.9,375h-.1l-1.1,3.6Z" transform="translate(-16.7 -370.1)"/><path class="cls-2" d="M41.7,373.6h2.7l7.4,11.6,2.3,4.4-.3-4.5V373.6H56v18.5H53.8l-7.9-12.5-2.4-4.2.4,4.3v12.4H41.7Z" transform="translate(-16.7 -370.1)"/><path class="cls-2" d="M61.2,373.6H67c5.6,0,8.7,3.2,8.7,9.2s-3.2,9.3-9,9.3H61.2Zm5.7,16.6c4.1,0,6.5-2.6,6.5-7.4h0c0-4.8-2.2-7.3-6.5-7.3H63.4v14.8Z" transform="translate(-16.7 -370.1)"/><path class="cls-2" d="M83.2,384.7l-6.5-11.1h2.5l3.4,6,1.6,3.7h.2l1.6-3.7,3.3-6h2.6l-6.5,11.1v7.4H83.2Z" transform="translate(-16.7 -370.1)"/><path class="cls-2" d="M97.8,382.8c0-5.8,3.4-9.6,8.5-9.6s6.2,1.9,7.3,5.7l-2.3.4c-.8-3-2.4-4.2-5-4.2s-6.2,2.9-6.2,7.7h0c0,4.6,2.1,7.6,6,7.6s4.6-1.6,5.3-4.5l2.2.5c-.8,3.8-3.4,5.9-7.5,5.9S97.8,388.5,97.8,382.8Z" transform="translate(-16.7 -370.1)"/><path class="cls-2" d="M121.5,373.6h2.9l6.7,18.5h-2.4l-1.8-5.3H119l-1.9,5.3h-2.3Zm-1.9,11.3h6.7l-2.2-6.3L123,375h-.1l-1.1,3.6Z" transform="translate(-16.7 -370.1)"/><path class="cls-2" d="M133.9,373.6h5.9c4.7,0,6.7,1.8,6.7,4.8s-1.1,4.2-4.4,4.8c2.8.6,4.5,3.1,5,7.9,0,.4.1.9.1,1h-2.4v-.8c-.4-4.8-2.2-7-5.4-7h-3.3v7.8h-2.2Zm5.6,9c3.4,0,4.7-1.7,4.7-3.9s-1.1-3.3-4.7-3.3h-3.4v7.2Z" transform="translate(-16.7 -370.1)"/><path class="cls-2" d="M151.4,373.6h11.9v2h-9.7v5.9h7v2h-7v6.6h10.1v2H151.4Z" transform="translate(-16.7 -370.1)"/><path class="cls-2" d="M165.6,387.9l2.1-.8a4.4,4.4,0,0,0,4.7,3.4c2.5,0,4.1-1.3,4.1-3.2s-1.9-3-4.8-3.8-5.4-2.3-5.3-5.4,2.5-4.9,6.1-4.9,5.5,1.4,6.3,4.1l-2,.8c-.5-2.1-2-3-4.3-3s-3.9,1.2-3.9,2.8,1.3,2.8,4.4,3.7,5.8,2.1,5.8,5.5-2.7,5.3-6.5,5.3S166.5,390.9,165.6,387.9Z" transform="translate(-16.7 -370.1)"/><path class="cls-2" d="M181,387.9l2.1-.8a4.4,4.4,0,0,0,4.7,3.4c2.6,0,4.2-1.3,4.2-3.2s-2-3-4.9-3.8-5.3-2.3-5.3-5.4,2.5-4.9,6.2-4.9,5.4,1.4,6.2,4.1l-2,.8c-.5-2.1-2-3-4.2-3s-4,1.2-4,2.8,1.3,2.8,4.4,3.7,5.9,2.1,5.9,5.5-2.8,5.3-6.6,5.3S181.9,390.9,181,387.9Z" transform="translate(-16.7 -370.1)"/><path class="cls-2" d="M203.4,373.6h2.3v18.5h-2.3Z" transform="translate(-16.7 -370.1)"/><path class="cls-2" d="M209.4,387.9l2-.8a4.5,4.5,0,0,0,4.7,3.4c2.6,0,4.2-1.3,4.2-3.2s-1.9-3-4.8-3.8-5.4-2.3-5.4-5.4,2.6-4.9,6.2-4.9,5.5,1.4,6.2,4.1l-1.9.8c-.5-2.1-2.1-3-4.3-3s-3.9,1.2-3.9,2.8,1.3,2.8,4.3,3.7,5.9,2.1,5.9,5.5-2.7,5.3-6.5,5.3S210.2,390.9,209.4,387.9Z" transform="translate(-16.7 -370.1)"/><path class="cls-2" d="M235.6,373.6h2.9l6.7,18.5h-2.4l-1.8-5.3h-7.9l-1.9,5.3h-2.3Zm-1.9,11.3h6.7l-2.2-6.3-1.1-3.6H237l-1.1,3.6Z" transform="translate(-16.7 -370.1)"/><path class="cls-2" d="M248,373.6h2.6l7.4,11.6,2.4,4.4-.3-4.5V373.6h2.1v18.5h-2.1l-8-12.5-2.3-4.2.3,4.3v12.4H248Z" transform="translate(-16.7 -370.1)"/><path class="cls-2" d="M276.6,373.6h2.9l6.7,18.5h-2.4l-1.8-5.3h-7.9l-1.9,5.3h-2.3Zm-1.9,11.3h6.7l-2.2-6.3-1.1-3.6H278l-1.1,3.6Z" transform="translate(-16.7 -370.1)"/><path class="cls-2" d="M287.3,387.9l2-.8a4.5,4.5,0,0,0,4.7,3.4c2.6,0,4.2-1.3,4.2-3.2s-1.9-3-4.8-3.8-5.4-2.3-5.4-5.4,2.5-4.9,6.2-4.9,5.5,1.4,6.2,4.1l-1.9.8c-.5-2.1-2.1-3-4.3-3s-3.9,1.2-3.9,2.8,1.3,2.8,4.3,3.7,5.9,2.1,5.9,5.5-2.7,5.3-6.5,5.3S288.1,390.9,287.3,387.9Z" transform="translate(-16.7 -370.1)"/><path class="cls-2" d="M304.4,373.6h2.3v18.5h-2.3Z" transform="translate(-16.7 -370.1)"/><path class="cls-2" d="M316.2,373.6h3l6.6,18.5h-2.3l-1.8-5.3h-8l-1.8,5.3h-2.4Zm-1.8,11.3h6.7l-2.2-6.3-1.1-3.6h-.1l-1.1,3.6Z" transform="translate(-16.7 -370.1)"/><path class="cls-2" d="M328.6,373.6h2.6l7.4,11.6,2.4,4.4-.3-4.5V373.6h2.1v18.5h-2.1l-8-12.5-2.3-4.2.4,4.3v12.4h-2.2Z" transform="translate(-16.7 -370.1)"/><path class="cls-2" d="M357.2,373.6h3l6.6,18.5h-2.4l-1.8-5.3h-7.9l-1.9,5.3h-2.3Zm-1.9,11.3H362l-2.2-6.3-1.1-3.6h-.1l-1.1,3.6Z" transform="translate(-16.7 -370.1)"/><path class="cls-2" d="M369.6,373.6h3.6l5.1,13.4.8,3h.1l.7-3,5.1-13.4h3.6v18.5h-2.1v-17h-.1l-1.7,4.8L380,392.1h-1.8l-4.7-11.9-1.8-5.1h-.2l.3,7v10h-2.2Z" transform="translate(-16.7 -370.1)"/><path class="cls-2" d="M393.8,373.6h12v2h-9.7v5.9h7v2h-7v6.6h10v2H393.8Z" transform="translate(-16.7 -370.1)"/><path class="cls-2" d="M409.7,373.6h5.9c4.7,0,6.7,1.8,6.7,4.8s-1.1,4.2-4.4,4.8c2.8.6,4.5,3.1,5,7.9,0,.4.1.9.1,1h-2.4v-.8c-.4-4.8-2.2-7-5.4-7h-3.3v7.8h-2.2Zm5.6,9c3.4,0,4.7-1.7,4.7-3.9s-1.1-3.3-4.7-3.3h-3.4v7.2Z" transform="translate(-16.7 -370.1)"/><path class="cls-2" d="M427.3,373.6h2.2v18.5h-2.2Z" transform="translate(-16.7 -370.1)"/><path class="cls-2" d="M433.5,382.8c0-5.8,3.5-9.6,8.6-9.6s6.2,1.9,7.2,5.7l-2.2.4c-.9-3-2.5-4.2-5.1-4.2s-6.2,2.9-6.2,7.7h0c0,4.6,2.2,7.6,6.1,7.6s4.6-1.6,5.3-4.5l2.2.5c-.8,3.8-3.5,5.9-7.5,5.9S433.5,388.5,433.5,382.8Z" transform="translate(-16.7 -370.1)"/><path class="cls-2" d="M457.3,373.6h2.9l6.7,18.5h-2.4l-1.8-5.3h-7.9l-1.9,5.3h-2.4Zm-1.9,11.3h6.7l-2.2-6.3-1.1-3.6h-.1l-1.1,3.6Z" transform="translate(-16.7 -370.1)"/><path class="cls-2" d="M469.6,373.6h2.6l7.4,11.6,2.4,4.4-.3-4.5V373.6h2.2v18.5h-2.2l-8-12.5-2.3-4.2.4,4.3v12.4h-2.2Z" transform="translate(-16.7 -370.1)"/><path class="cls-2" d="M493.1,382.9c0-5.9,3.4-9.7,8.8-9.7,3.7,0,6.2,1.7,7.3,4.8l-2.3.7a4.7,4.7,0,0,0-5-3.6c-4,0-6.5,2.8-6.5,7.7h0c0,4.8,2.4,7.6,6.1,7.6s5.6-1.8,5.8-6.1h-4.9v-2h7.1v9.7h-1.7l-.2-5.6c-.6,3.9-3.1,5.9-6.5,5.9S493.1,388.7,493.1,382.9Z" transform="translate(-16.7 -370.1)"/><path class="cls-2" d="M513.7,373.6h5.9c4.8,0,6.8,1.8,6.8,4.8s-1.2,4.2-4.4,4.8c2.8.6,4.5,3.1,4.9,7.9a4.6,4.6,0,0,1,.1,1h-2.3c0-.1-.1-.6-.1-.8-.4-4.8-2.2-7-5.3-7H516v7.8h-2.3Zm5.7,9c3.3,0,4.7-1.7,4.7-3.9s-1.2-3.3-4.7-3.3H516v7.2Z" transform="translate(-16.7 -370.1)"/><path class="cls-2" d="M535.8,373.6h2.9l6.7,18.5H543l-1.8-5.3h-7.9l-1.9,5.3h-2.3Zm-1.9,11.3h6.7l-2.2-6.3-1.1-3.6h-.1l-1.1,3.6Z" transform="translate(-16.7 -370.1)"/><path class="cls-2" d="M548.1,373.6h5.5c4.7,0,6.9,1.9,6.9,5.6s-2.8,6.2-7.2,6.2h-2.9v6.7h-2.3Zm2.3,10h2.7c3.6,0,5.1-1.8,5.1-4.2s-1.5-4-4.9-4h-2.9Z" transform="translate(-16.7 -370.1)"/><path class="cls-2" d="M563.8,373.6h2.3v8h9.4v-8h2.3v18.5h-2.3v-8.5h-9.4v8.5h-2.3Z" transform="translate(-16.7 -370.1)"/><path class="cls-2" d="M583,373.6h2.3v18.5H583Z" transform="translate(-16.7 -370.1)"/><path class="cls-2" d="M589.3,382.8c0-5.8,3.5-9.6,8.5-9.6s6.3,1.9,7.3,5.7l-2.2.4c-.9-3-2.5-4.2-5.1-4.2s-6.2,2.9-6.2,7.7h0c0,4.6,2.2,7.6,6.1,7.6s4.6-1.6,5.3-4.5l2.2.5a7.1,7.1,0,0,1-7.5,5.9C592.4,392.4,589.3,388.5,589.3,382.8Z" transform="translate(-16.7 -370.1)"/><path class="cls-2" d="M614,373.6h5.8c5.6,0,8.8,3.2,8.8,9.2s-3.3,9.3-9.1,9.3H614Zm5.7,16.6c4.1,0,6.5-2.6,6.5-7.4h0c0-4.8-2.2-7.3-6.4-7.3h-3.6v14.8Z" transform="translate(-16.7 -370.1)"/><path class="cls-2" d="M632.5,373.6h11.9v2h-9.7v5.9h7v2h-7v6.6h10.1v2H632.5Z" transform="translate(-16.7 -370.1)"/><path class="cls-2" d="M646.7,387.9l2.1-.8c.5,2.4,2.5,3.4,4.7,3.4s4.1-1.3,4.1-3.2-1.9-3-4.8-3.8-5.4-2.3-5.3-5.4,2.5-4.9,6.1-4.9,5.5,1.4,6.2,4.1l-1.9.8c-.5-2.1-2.1-3-4.3-3s-3.9,1.2-3.9,2.8,1.3,2.8,4.3,3.7,5.9,2.1,5.9,5.5-2.7,5.3-6.5,5.3S647.5,390.9,646.7,387.9Z" transform="translate(-16.7 -370.1)"/><path class="cls-2" d="M663.8,373.6h2.3v18.5h-2.3Z" transform="translate(-16.7 -370.1)"/><path class="cls-2" d="M670.1,382.9c0-5.9,3.5-9.7,8.8-9.7s6.2,1.7,7.3,4.8l-2.3.7a4.7,4.7,0,0,0-5-3.6c-4,0-6.5,2.8-6.5,7.7h0c0,4.8,2.4,7.6,6.1,7.6s5.6-1.8,5.8-6.1h-4.9v-2h7.1v9.7h-1.7l-.2-5.6c-.6,3.9-3.1,5.9-6.4,5.9C673.4,392.4,670.1,388.7,670.1,382.9Z" transform="translate(-16.7 -370.1)"/><path class="cls-2" d="M690.8,373.6h2.6l7.4,11.6,2.3,4.4-.3-4.5V373.6H705v18.5h-2.1l-8-12.5-2.4-4.2.4,4.3v12.4h-2.1Z" transform="translate(-16.7 -370.1)"/><path class="cls-2" d="M710.2,373.6h11.9v2h-9.7v5.9h7v2h-7v6.6h10.1v2H710.2Z" transform="translate(-16.7 -370.1)"/><path class="cls-2" d="M726.1,373.6H732c4.7,0,6.7,1.8,6.7,4.8s-1.1,4.2-4.4,4.8c2.8.6,4.5,3.1,5,7.9v1H737c0-.1-.1-.6-.1-.8-.4-4.8-2.1-7-5.3-7h-3.3v7.8h-2.2Zm5.6,9c3.4,0,4.7-1.7,4.7-3.9s-1.2-3.3-4.7-3.3h-3.4v7.2Z" transform="translate(-16.7 -370.1)"/><path class="cls-2" d="M747.2,387.9l2.1-.8a4.4,4.4,0,0,0,4.7,3.4c2.5,0,4.1-1.3,4.1-3.2s-1.9-3-4.8-3.8-5.3-2.3-5.3-5.4,2.5-4.9,6.1-4.9,5.5,1.4,6.3,4.1l-2,.8c-.5-2.1-2-3-4.3-3s-3.9,1.2-3.9,2.8,1.3,2.8,4.4,3.7,5.9,2.1,5.9,5.5-2.8,5.3-6.6,5.3S748.1,390.9,747.2,387.9Z" transform="translate(-16.7 -370.1)"/><path class="cls-2" d="M762,373.6h13.4v2h-5.5v16.5h-2.3V375.6H762Z" transform="translate(-16.7 -370.1)"/><path class="cls-2" d="M777.9,384.5V373.6h2.3v10.9c0,4.1,1.6,5.9,4.8,5.9s4.8-1.8,4.8-5.9V373.6h2.3v10.9c0,5.4-2.7,7.9-7.1,7.9S777.9,389.8,777.9,384.5Z" transform="translate(-16.7 -370.1)"/><path class="cls-2" d="M796.8,373.6h5.8c5.6,0,8.7,3.2,8.7,9.2s-3.2,9.3-9,9.3h-5.5Zm5.7,16.6c4.1,0,6.5-2.6,6.5-7.4h0c0-4.8-2.2-7.3-6.5-7.3H799v14.8Z" transform="translate(-16.7 -370.1)"/><path class="cls-2" d="M818.8,384.7l-6.5-11.1h2.5l3.4,6,1.6,3.7h.2l1.6-3.7,3.3-6h2.6L821,384.7v7.4h-2.2Z" transform="translate(-16.7 -370.1)"/><path class="cls-2" d="M830.1,373.6h2.3v18.5h-2.3Z" transform="translate(-16.7 -370.1)"/><path class="cls-2" d="M837.6,373.6h2.6l7.4,11.6,2.4,4.4-.3-4.5V373.6h2.2v18.5h-2.2l-8-12.5-2.3-4.2.4,4.3v12.4h-2.2Z" transform="translate(-16.7 -370.1)"/><path class="cls-2" d="M855.8,382.9c0-5.9,3.4-9.7,8.8-9.7,3.8,0,6.2,1.7,7.3,4.8l-2.3.7a4.7,4.7,0,0,0-5-3.6c-4,0-6.5,2.8-6.5,7.7h0c0,4.8,2.4,7.6,6.1,7.6s5.6-1.8,5.8-6.1h-4.9v-2h7.1v9.7h-1.7l-.2-5.6c-.6,3.9-3.1,5.9-6.4,5.9C859,392.4,855.8,388.7,855.8,382.9Z" transform="translate(-16.7 -370.1)"/><path class="cls-2" d="M885.6,373.6h2.9l6.7,18.5h-2.4l-1.8-5.3h-7.9l-1.9,5.3h-2.3Zm-1.9,11.3h6.7l-2.2-6.3-1.1-3.6H887l-1.1,3.6Z" transform="translate(-16.7 -370.1)"/><path class="cls-2" d="M895,373.6h13.3v2h-5.5v16.5h-2.3V375.6H895Z" transform="translate(-16.7 -370.1)"/><path class="cls-2" d="M912.9,373.6h2.4l4.5,13.1.9,3.5h.1l.9-3.5,4.4-13.1h2.4L922,392.1h-2.6Z" transform="translate(-16.7 -370.1)"/><path class="cls-2" d="M929.8,382.8c0-5.8,3.4-9.6,8.5-9.6s6.2,1.9,7.2,5.7l-2.2.4c-.8-3-2.4-4.2-5-4.2s-6.2,2.9-6.2,7.7h0c0,4.6,2.1,7.6,6,7.6s4.6-1.6,5.3-4.5l2.2.5c-.8,3.8-3.4,5.9-7.5,5.9S929.8,388.5,929.8,382.8Z" transform="translate(-16.7 -370.1)"/><path class="cls-2" d="M948.7,384.5V373.6H951v10.9c0,4.1,1.6,5.9,4.7,5.9s4.9-1.8,4.9-5.9V373.6h2.2v10.9c0,5.4-2.7,7.9-7,7.9S948.7,389.8,948.7,384.5Z" transform="translate(-16.7 -370.1)"/><path class="cls-2" d="M976.7,373.6h2.9l6.7,18.5h-2.4l-1.8-5.3h-7.9l-1.9,5.3H970Zm-1.9,11.3h6.7l-2.2-6.3-1.1-3.6h-.1l-1.1,3.6Z" transform="translate(-16.7 -370.1)"/><path class="cls-2" d="M989.1,373.6H995c4.7,0,6.7,1.8,6.7,4.8s-1.1,4.2-4.4,4.8c2.8.6,4.5,3.1,5,7.9,0,.4.1.9.1,1H1000v-.8c-.5-4.8-2.2-7-5.4-7h-3.3v7.8h-2.2Zm5.6,9c3.4,0,4.7-1.7,4.7-3.9s-1.1-3.3-4.7-3.3h-3.4v7.2Z" transform="translate(-16.7 -370.1)"/><path class="cls-2" d="M1004.2,373.6h13.3v2H1012v16.5h-2.3V375.6h-5.5Z" transform="translate(-16.7 -370.1)"/><path class="cls-2" d="M1018.8,387.9l2-.8a4.5,4.5,0,0,0,4.7,3.4c2.6,0,4.2-1.3,4.2-3.2s-1.9-3-4.8-3.8-5.4-2.3-5.4-5.4,2.5-4.9,6.2-4.9,5.5,1.4,6.2,4.1l-1.9.8c-.5-2.1-2.1-3-4.3-3s-3.9,1.2-3.9,2.8,1.3,2.8,4.3,3.7,5.9,2.1,5.9,5.5-2.7,5.3-6.5,5.3S1019.6,390.9,1018.8,387.9Z" transform="translate(-16.7 -370.1)"/><path class="cls-2" d="M1041.1,373.6h6.2c4.2,0,6.5,1.4,6.5,4.6s-1.2,3.4-3.4,4c2.7.5,4.3,2,4.3,4.6s-2.6,5.3-7,5.3h-6.6Zm2.2,8.1h4.2c2.7,0,4-1.2,4-3.2s-1.2-3.1-4.2-3.1h-4Zm4.5,8.5c2.9,0,4.6-1.1,4.6-3.4s-1.5-3.4-5-3.4h-4.1v6.8Z" transform="translate(-16.7 -370.1)"/><path class="cls-2" d="M1062.9,373.6h3l6.6,18.5h-2.3l-1.9-5.3h-7.9l-1.8,5.3h-2.4Zm-1.8,11.3h6.7l-2.2-6.3-1.1-3.6h-.1l-1.1,3.6Z" transform="translate(-16.7 -370.1)"/><path class="cls-2" d="M1073.6,387.9l2.1-.8a4.4,4.4,0,0,0,4.7,3.4c2.5,0,4.1-1.3,4.1-3.2s-1.9-3-4.8-3.8-5.4-2.3-5.3-5.4,2.5-4.9,6.1-4.9,5.5,1.4,6.3,4.1l-2,.8c-.5-2.1-2-3-4.3-3s-3.9,1.2-3.9,2.8,1.3,2.8,4.4,3.7,5.8,2.1,5.8,5.5-2.7,5.3-6.5,5.3S1074.5,390.9,1073.6,387.9Z" transform="translate(-16.7 -370.1)"/><path class="cls-2" d="M1090.7,373.6h11.9v2h-9.7v5.9h7v2h-7v6.6H1103v2h-12.3Z" transform="translate(-16.7 -370.1)"/><path class="cls-2" d="M1106.5,373.6h5.8c5.6,0,8.8,3.2,8.8,9.2s-3.3,9.3-9.1,9.3h-5.5Zm5.7,16.6c4.1,0,6.5-2.6,6.5-7.4h0c0-4.8-2.2-7.3-6.4-7.3h-3.6v14.8Z" transform="translate(-16.7 -370.1)"/><path class="cls-2" d="M1130.4,373.6h2.2v18.5h-2.2Z" transform="translate(-16.7 -370.1)"/><path class="cls-2" d="M1137.9,373.6h2.6l7.4,11.6,2.4,4.4-.3-4.5V373.6h2.2v18.5H1150l-8-12.5-2.3-4.2.4,4.3v12.4h-2.2Z" transform="translate(-16.7 -370.1)"/><path class="cls-2" d="M1162.7,373.6h5.9c4.7,0,6.7,1.8,6.7,4.8s-1.1,4.2-4.4,4.8c2.8.6,4.5,3.1,5,7.9v1h-2.3v-.8c-.5-4.8-2.2-7-5.4-7h-3.3v7.8h-2.2Zm5.6,9c3.4,0,4.7-1.7,4.7-3.9s-1.2-3.3-4.7-3.3h-3.4v7.2Z" transform="translate(-16.7 -370.1)"/><path class="cls-2" d="M1180.2,373.6h2.3v18.5h-2.3Z" transform="translate(-16.7 -370.1)"/><path class="cls-2" d="M1186.5,382.8c0-5.8,3.4-9.6,8.5-9.6s6.2,1.9,7.3,5.7l-2.3.4c-.8-3-2.4-4.2-5-4.2s-6.2,2.9-6.2,7.7h0c0,4.6,2.2,7.6,6,7.6s4.6-1.6,5.3-4.5l2.2.5c-.8,3.8-3.4,5.9-7.5,5.9S1186.5,388.5,1186.5,382.8Z" transform="translate(-16.7 -370.1)"/><path class="cls-2" d="M1205.9,373.6h2.3v8h9.4v-8h2.3v18.5h-2.3v-8.5h-9.4v8.5h-2.3Z" transform="translate(-16.7 -370.1)"/><path class="cls-2" d="M1225.1,373.6h3.6l5.1,13.4.8,3h.1l.7-3,5.1-13.4h3.6v18.5h-2.2v-10l.2-7h-.1l-1.7,4.8-4.8,12.2h-1.8l-4.7-11.9-1.9-5.1h-.1l.2,7v10h-2.1Z" transform="translate(-16.7 -370.1)"/><path class="cls-2" d="M1248,382.8c0-5.8,3.2-9.6,8.6-9.6s8.4,3.8,8.4,9.6-3.2,9.6-8.6,9.6S1248,388.7,1248,382.8Zm14.6.1h0c0-4.7-2.3-7.7-6.1-7.7s-6.2,2.9-6.2,7.7h0c0,4.7,2.4,7.6,6.2,7.6S1262.6,387.7,1262.6,382.9Z" transform="translate(-16.7 -370.1)"/><path class="cls-2" d="M1268.9,373.6h2.7l7.4,11.6,2.3,4.4-.3-4.5V373.6h2.2v18.5H1281l-8-12.5-2.3-4.2.4,4.3v12.4h-2.2Z" transform="translate(-16.7 -370.1)"/><path class="cls-2" d="M1288.4,373.6h5.8c5.6,0,8.7,3.2,8.7,9.2s-3.3,9.3-9.1,9.3h-5.4Zm5.7,16.6c4.1,0,6.4-2.6,6.4-7.4h0c0-4.8-2.1-7.3-6.4-7.3h-3.5v14.8Z" transform="translate(-16.7 -370.1)"/><path class="cls-2" d="M1304.6,397.3l-.6-1c1.9-.7,2.2-2.1,2.2-4.4h-.7c-.1,0-.1-.1-.1-.2v-3.1a.2.2,0,0,1,.2-.2h2.1a.2.2,0,0,1,.2.2V391C1307.9,394.4,1307.1,396.4,1304.6,397.3Z" transform="translate(-16.7 -370.1)"/><path class="cls-2" d="M1314.4,373.6h2.4l4.4,13.1.9,3.5h.2l.9-3.5,4.4-13.1h2.4l-6.6,18.5h-2.5Z" transform="translate(-16.7 -370.1)"/><path class="cls-2" d="M1336.2,373.6h3l6.6,18.5h-2.4l-1.8-5.3h-7.9l-1.8,5.3h-2.4Zm-1.9,11.3h6.7l-2.2-6.3-1.1-3.6h-.1l-1.1,3.6Z" transform="translate(-16.7 -370.1)"/></svg>