<svg id="Layer_1" data-name="Layer 1" xmlns="http://www.w3.org/2000/svg" viewBox="0 0 1366 768"><defs><style>.cls-1{fill:red;}.cls-2{fill:blue;}</style></defs><rect class="cls-1" x="143.7" width="1070.8" height="768"/><path class="cls-2" d="M143.7,0h31l55.7,641.9L298.4,0h27.4l67.6,644.2L452.2,0h30.6L406.5,768h-27l-68-644.2L242.7,768h-27Z"/><path class="cls-2" d="M490.8,382.9C490.8,152.3,541.3,0,619.3,0c75.9,0,126,153.4,126,385.1S695.2,768,617.3,768C540.9,768,490.8,614.6,490.8,382.9Zm225.1,5.6v-9c0-189.2-37.4-307.8-97.1-307.8s-98.2,116.4-98.2,306.7v9c0,189.2,37,308.9,97.1,308.9S715.9,578.8,715.9,388.5Z"/><path class="cls-2" d="M872.6,0c65.9,0,97,69.4,97,198.9,0,106.4-19.9,192-67.2,211.7,46.9,37,66.4,152.7,73.5,328.5l1.2,28.9H947.7l-.8-20.8c-7.6-175.8-29-303.1-90.7-303.1H811.3V768H782.7V0ZM811.3,374.7h52.9c55.3,0,76.7-75.1,76.7-170s-21-134.1-67.6-134.1h-62Z"/><path class="cls-2" d="M1039.2,439.5,1171.9,0h33.4l-92.2,306.5L1214.5,768h-32.6l-88.3-402.5-54.4,180.4V768h-28.7V0h28.7Z"/></svg>