<svg id="Layer_1" data-name="Layer 1" xmlns="http://www.w3.org/2000/svg" viewBox="0 0 1201.5 791.5"><defs><style>.cls-1{fill:red;}.cls-2{fill:blue;}</style></defs><rect class="cls-1" y="12.7" width="1201.5" height="766.09"/><path class="cls-2" d="M180.4-.2h34.2L310.9,767H280.4L249.9,519H142.8l-31,248H82.5ZM151.5,447.5h90L196.3,85.2Z" transform="translate(-82.5 11.7)"/><path class="cls-2" d="M434.7,1C493,1,522,64.4,522,195.9c0,83.1-14.7,136.2-43.3,161.6,36.9,26.5,56.4,90,56.4,191.5,0,145.4-32.6,218-95.6,218H342.3V1ZM370.8,327.5h54.8c44.8,0,66.2-42.7,66.2-126.9.8-91.2-15.1-128.1-56.3-128.1H370.8Zm66.7,368c44.4,0,66.6-48.4,66.6-150s-22.2-147.7-70.6-147.7H370.8V695.5Z" transform="translate(-82.5 11.7)"/><path class="cls-2" d="M558.1,382.8c0-237.6,50.3-394.5,128.1-394.5,75.7,0,125.7,158,125.7,396.9s-50,394.5-127.7,394.5S558.1,621.7,558.1,382.8Zm224.5,5.8v-9.2c0-195-37.3-317.3-96.8-317.3s-98,120-98,316.1v9.3c0,194.9,36.9,318.4,96.8,318.4S782.6,584.8,782.6,388.6Z" transform="translate(-82.5 11.7)"/><path class="cls-2" d="M847.2,478.6V1h28.6V475.1c0,159.3,22.2,233.1,74.6,233.1s72.1-71.5,72.1-229.6V1h28.2V478.6c0,204.2-34.5,301.1-100.7,301.1C880.5,779.7,847.2,679.4,847.2,478.6Z" transform="translate(-82.5 11.7)"/><path class="cls-2" d="M1283.9,73.6h-88V767h-28.6V73.6h-88V1h204.6Z" transform="translate(-82.5 11.7)"/></svg>