<svg id="Layer_1" data-name="Layer 1" xmlns="http://www.w3.org/2000/svg" viewBox="0 0 1030.3 792.2"><defs><style>.cls-1{fill:blue;}.cls-2{fill:red;}</style></defs><rect class="cls-1" y="12.7" width="1030.3" height="766.82"/><path class="cls-2" d="M374.3,767.4H345.7V414H196.4V767.4H167.8V.6h28.6V340.1H345.7V.6h28.6Z" transform="translate(-167.8 12.1)"/><path class="cls-2" d="M411.2,382.8c0-237.9,50.5-394.9,128.3-394.9,75.8,0,125.8,158.2,125.8,397.3s-50,394.9-127.8,394.9C461.3,780.1,411.2,621.9,411.2,382.8ZM636,388.6v-9.2c0-195.2-37.4-317.6-96.9-317.6S441,181.9,441,378.2v9.3c0,195.1,36.9,318.7,96.9,318.7S636,584.9,636,388.6Z" transform="translate(-167.8 12.1)"/><path class="cls-2" d="M832.9,654.2,918.2.6h46.9V767.4H937.3V72.2L844.4,767.4H819.8L730.4,75.7V767.4H702.7V.6h48.4Z" transform="translate(-167.8 12.1)"/><path class="cls-2" d="M1139.4,399h-96.9V694.7h155.7v72.7H1013.9V.6h175.5V73.3H1042.5v253h96.9Z" transform="translate(-167.8 12.1)"/></svg>