<svg id="Layer_1" data-name="Layer 1" xmlns="http://www.w3.org/2000/svg" viewBox="0 0 1031.8 768"><defs><style>.cls-1{fill:blue;}.cls-2{fill:red;}</style></defs><rect class="cls-1" width="1031.8" height="768"/><path class="cls-2" d="M373.9,767.9H345.2V414.1H195.7V767.9H167.1V0h28.6V340H345.2V0h28.7Z" transform="translate(-167.1)"/><path class="cls-2" d="M410.8,382.9C410.8,152.3,461.3,0,539.3,0c75.9,0,126,153.4,126,385.1S615.2,768,537.3,768C460.9,768,410.8,614.6,410.8,382.9Zm225.1,5.6v-9c0-189.2-37.4-307.9-97-307.9s-98.2,116.5-98.2,306.8v8.9c0,189.2,36.9,309,97,309S635.9,578.8,635.9,388.5Z" transform="translate(-167.1)"/><path class="cls-2" d="M833.1,654.6,918.6,0h46.9V767.9H937.7V71.7L844.6,767.9H820L730.5,75.2V767.9H702.7V0h48.5Z" transform="translate(-167.1)"/><path class="cls-2" d="M1140.1,399H1043V695.1h155.9v72.8H1014.4V0h175.8V72.9H1043V326.2h97.1Z" transform="translate(-167.1)"/></svg>