<svg id="Layer_1" data-name="Layer 1" xmlns="http://www.w3.org/2000/svg" viewBox="0 0 844 393.3"><defs><style>.cls-1{fill:blue;}.cls-2{fill:red;}</style></defs><rect class="cls-1" y="198.1" width="844" height="157.9"/><rect class="cls-1" x="144.2" y="28.7" width="557.4" height="157.98"/><path class="cls-2" d="M419.2,361.9h63.6v15.2H405.1V219.2h14.1Z" transform="translate(-261 -190.4)"/><path class="cls-2" d="M480.6,317.7V219.2h14v97.7c0,32.9,10.9,48.1,36.6,48.1s35.4-14.8,35.4-47.3V219.2h13.8v27.4c8.6-1.5,20.9-7.7,20.9-26,0-9.7-3.9-15.4-9.8-19.9l6.3-10.3c11.2,6.7,14.9,18.1,14.9,29,0,26-20.2,37.9-32.3,37.6v60.7c0,42-16.9,62-49.4,62S480.6,359,480.6,317.7Z" transform="translate(-261 -190.4)"/><path class="cls-2" d="M595.2,297.9c0-49,24.7-81.3,62.9-81.3,21.6,0,39.1,11.2,49.8,30.2,7.4-2.6,16.5-9.8,16.5-25,0-9.7-3.9-15.4-9.9-19.7l6.2-10.5c11.3,6.7,15,18.3,15,29,0,20.2-12.6,31.9-23.2,35.9,4.7,11.9,7.2,26.2,7.2,41.9,0,49-24.5,81.3-62.6,81.3S595.2,347.1,595.2,297.9Zm110.1,1.2v-1.9c0-40.2-18.2-65.4-47.4-65.4s-48.1,24.7-48.1,65.2v1.9c0,40.2,18.1,65.6,47.5,65.6S705.3,339.5,705.3,299.1Z" transform="translate(-261 -190.4)"/><path class="cls-2" d="M829.7,351V219.2h13.6V377.6H829.1L752.8,242V377.1H739.2V219.2h16.9Z" transform="translate(-261 -190.4)"/><path class="cls-2" d="M851.1,299.6c0-50.9,23.5-83,59.3-83,29.2,0,47.9,18.1,52.3,54H948.4c-3.5-27.4-17.2-39-38.4-39-27.2,0-44.5,25.2-44.5,66.6v1.6c0,40.4,16.9,64.9,44.5,64.9,23.2,0,38.7-16.8,38.7-34V308.4h13.9v68.7H948.9V356.9c-7.4,13.6-21.2,22.8-39.8,22.8C873.4,379.7,851.1,348.8,851.1,299.6Z" transform="translate(-261 -190.4)"/><path class="cls-2" d="M351.5,520.3V388.5h13.6V546.9H350.9L274.6,411.3V546.4H261V388.5h16.9Z" transform="translate(-261 -190.4)"/><path class="cls-2" d="M373.4,468.9c0-50.9,23.6-83,59.4-83,29.2,0,47.8,18.1,52.3,54H470.7c-3.5-27.4-17.1-39-38.3-39-27.3,0-44.6,25.2-44.6,66.6v1.6c0,40.5,17,65,44.6,65,23.1,0,38.7-16.9,38.7-34.1V477.7h13.8v68.7H471.3V526.2c-7.4,13.6-21.2,22.8-39.9,22.8C395.8,549,373.4,518.1,373.4,468.9Z" transform="translate(-261 -190.4)"/><path class="cls-2" d="M492.1,467.2c0-49,24.7-81.3,62.9-81.3s61.6,32.6,61.6,81.8S592.1,549,554,549,492.1,516.5,492.1,467.2Zm110.1,1.2v-1.9c0-40.2-18.3-65.4-47.4-65.4s-48.1,24.8-48.1,65.2v1.9c0,40.2,18.1,65.6,47.5,65.6S602.2,508.8,602.2,468.4Zm-40,115.4H546.8V565.2h15.4Z" transform="translate(-261 -190.4)"/><path class="cls-2" d="M619.7,467.7c0-50.4,25.7-81.8,59.6-81.8,27.4,0,50.2,16.6,55.6,60.6l-14.8.3c-4.4-35.5-21.2-45.4-40.8-45.4-25.9,0-45,24.2-45,65.4v1.4c0,41.4,19.1,65.4,44.8,65.4,19.4,0,37.1-10.2,41.2-46.4l14.8.2c-5,44.5-28.6,61.6-56.4,61.6C645.2,549,619.7,517.4,619.7,467.7Z" transform="translate(-261 -190.4)"/><path class="cls-2" d="M815.3,388.5c28.6,0,42.8,13.1,42.8,40.2,0,17.1-7.2,28.1-21.2,33.3,18.1,5.5,27.6,18.5,27.6,39.5,0,29.9-16,44.9-46.9,44.9H769.9V388.5Zm-31.4,67.3h26.9c22,0,32.5-8.8,32.5-26.1s-7.4-26.4-27.6-26.4H783.9Zm32.7,75.9c21.8,0,32.7-10,32.7-30.9s-10.9-30.5-34.6-30.5H783.9v61.4Z" transform="translate(-261 -190.4)"/><path class="cls-2" d="M870.7,487V388.5h14v97.8c0,32.8,10.9,48,36.6,48s35.4-14.8,35.4-47.3V388.5h13.8v27.4c8.6-1.5,20.8-7.6,20.8-26,0-9.7-3.9-15.4-9.7-19.9l6.2-10.3c11.3,6.7,15,18.1,15,29.1,0,25.9-20.2,37.8-32.3,37.5V487c0,42.1-16.9,62-49.4,62S870.7,528.3,870.7,487Z" transform="translate(-261 -190.4)"/><path class="cls-2" d="M1003,487V388.5h14v97.8c0,32.8,10.9,48,36.6,48S1089,519.5,1089,487V388.5h13.8V487c0,42.1-16.9,62-49.4,62C1019.4,549,1003,528.3,1003,487Z" transform="translate(-261 -190.4)"/></svg>