<svg id="Layer_1" data-name="Layer 1" xmlns="http://www.w3.org/2000/svg" viewBox="0 0 1406.1 793"><defs><style>.cls-1{fill:blue;}.cls-2{fill:red;}</style></defs><rect class="cls-1" y="12.7" width="1406.1" height="767.57"/><path class="cls-2" d="M69.8.2c66,0,97,69.4,97,198.8,0,106.4-19.9,191.9-67.2,211.6,46.9,37,66.4,152.6,73.5,328.3l1.2,28.9H144.9l-.8-20.8c-7.5-175.7-29-302.9-90.6-302.9H8.6V767.8H-20V.2ZM8.6,374.7H61.4c55.3,0,76.7-75.1,76.7-169.9S117.1,70.7,70.6,70.7H8.6Z" transform="translate(20 12.5)"/><path class="cls-2" d="M333.3,399h-97V695H392.1v72.8H207.7V.2H383.3V73h-147V326.2h97Z" transform="translate(20 12.5)"/><path class="cls-2" d="M404.4,526.2h30.2c9.5,132.9,35,181.5,78.7,181.5,40.5,0,64-60.1,64-152.6,0-89-33.8-116.8-73.5-139.9-44.1-24.3-89.5-67-89.5-208.1,0-123.7,35.8-219.6,88.3-219.6,55.6,0,91,75.1,100.9,253.2H573.7c-8.3-137.6-34.6-181.5-71.5-181.5s-59.6,58.9-59.6,144.5c0,93.6,36.1,117.9,75.5,139.8,43.7,23.2,87.8,65.9,87.8,208.1,0,131.8-33.8,227.7-92.2,227.7C449.3,779.3,415.9,696.1,404.4,526.2Z" transform="translate(20 12.5)"/><path class="cls-2" d="M639.3,478.8V.2h28.6V475.3c0,159.5,22.3,233.5,74.7,233.5s72.3-71.6,72.3-230V.2h28.3V478.8c0,204.6-34.6,301.7-101,301.7C672.7,780.5,639.3,679.9,639.3,478.8Z" transform="translate(20 12.5)"/><path class="cls-2" d="M1020.4,654.5,1105.9.2h46.9V767.8h-27.9V71.9l-93,695.9h-24.6L917.9,75.3V767.8H890.1V.2h48.4Z" transform="translate(20 12.5)"/><path class="cls-2" d="M1327.2,399h-97V695H1386v72.8H1201.6V.2h175.7V73H1230.2V326.2h97Z" transform="translate(20 12.5)"/></svg>