<svg id="Layer_1" data-name="Layer 1" xmlns="http://www.w3.org/2000/svg" viewBox="0 0 1072.1 794.4"><defs><style>.cls-1{fill:blue;}.cls-2{fill:red;}</style></defs><rect class="cls-1" y="12.7" width="1072.1" height="768.91"/><path class="cls-2" d="M146.9-.5H178l55.7,642.7L301.8-.5h27.5l67.7,645L455.9-.5h30.6l-76.4,769H383l-68.1-645-68.8,645H219Z" transform="translate(-146.9 13.2)"/><path class="cls-2" d="M494.5,382.8c0-238.5,50.5-396,128.6-396,76,0,126.2,158.6,126.2,398.4s-50.2,396-128.2,396C544.7,781.2,494.5,622.5,494.5,382.8Zm225.3,5.8v-9.2c0-195.7-37.4-318.5-97.1-318.5s-98.3,120.4-98.3,317.3v9.3c0,195.7,37,319.6,97.1,319.6S719.8,585.5,719.8,388.6Z" transform="translate(-146.9 13.2)"/><path class="cls-2" d="M876.7-.5c66.1,0,97.1,69.5,97.1,199.2,0,106.5-19.9,192.2-67.3,211.9,47,37.1,66.5,152.9,73.7,328.9l1.2,29H951.9l-.8-20.9c-7.5-176-29-303.4-90.7-303.4h-45V768.5H786.7V-.5ZM815.4,374.7h52.9c55.4,0,76.9-75.2,76.9-170.2S924.1,70.2,877.5,70.2H815.4Z" transform="translate(-146.9 13.2)"/><path class="cls-2" d="M1043.5,439.6,1176.5-.5h33.4l-92.4,306.9,101.6,462.1h-32.7l-88.4-403-54.5,180.6V768.5h-28.7V-.5h28.7Z" transform="translate(-146.9 13.2)"/></svg>