<svg id="Layer_1" data-name="Layer 1" xmlns="http://www.w3.org/2000/svg" viewBox="0 0 1366 768"><defs><style>.cls-1{fill:red;}.cls-2{fill:blue;}</style></defs><rect class="cls-1" x="81.9" width="1204" height="768"/><path class="cls-2" d="M180.2,0h34.1L311,768H280.3L249.7,519.7H142.4L111.4,768H81.9ZM151.1,448.1h90.3L196.1,85.5Z"/><path class="cls-2" d="M434.6,0c58.5,0,87.5,63.6,87.5,195.5,0,83.2-14.7,136.4-43.3,161.9,36.9,26.6,56.4,90.2,56.4,192,0,145.7-32.6,218.6-95.8,218.6H342V0Zm-64,327.3h54.9c44.9,0,66.4-42.8,66.4-127.2.8-91.4-15.1-128.4-56.5-128.4H370.6Zm66.8,369c44.6,0,66.8-48.6,66.8-150.4s-22.2-148-70.8-148H370.6V696.3Z"/><path class="cls-2" d="M558.3,382.9C558.3,152.3,608.8,0,686.7,0c76,0,126.1,153.4,126.1,385.1S762.7,768,684.8,768C608.4,768,558.3,614.6,558.3,382.9Zm225,5.6v-9c0-189.2-37.3-307.8-97-307.8s-98.2,116.4-98.2,306.7v9c0,189.2,37,308.9,97,308.9S783.3,578.8,783.3,388.5Z"/><path class="cls-2" d="M848.2,471V0h28.6V467.6c0,157,22.3,229.9,74.8,229.9s72.3-70.6,72.3-226.5V0h28.3V471c0,201.4-34.6,297-101,297C881.6,768,848.2,669,848.2,471Z"/><path class="cls-2" d="M1286,72.9h-88.3V768h-28.6V72.9h-88.3V0H1286Z"/></svg>