<svg id="Layer_1" data-name="Layer 1" xmlns="http://www.w3.org/2000/svg" viewBox="0 0 1402.7 766.9"><defs><style>.cls-1{fill:red;}.cls-2{fill:blue;}</style></defs><rect class="cls-1" y="1.2" width="1402.7" height="765.78"/><path class="cls-2" d="M67.8,1.2c65.8,0,96.8,69.1,96.8,198.3,0,106.1-19.9,191.5-67,211.1,46.8,36.9,66.2,152.2,73.3,327.5l1.2,28.8H142.8l-.8-20.7C134.4,570.9,113,444,51.6,444H6.8V766.9H-21.8V1.2ZM6.8,374.8H59.5c55.1,0,76.5-74.9,76.5-169.5S115,71.5,68.6,71.5H6.8Z" transform="translate(21.8)"/><path class="cls-2" d="M330.7,399H234V694.3H389.4v72.6h-184V1.2H380.7V73.8H234V326.4h96.7Z" transform="translate(21.8)"/><path class="cls-2" d="M401.7,521.7h30.1c9.5,128.8,34.9,175.8,78.5,175.8,40.5,0,63.8-58.2,63.8-147.8,0-86.2-33.7-113.1-73.3-135.4-44-23.6-89.2-65-89.2-201.6C411.6,92.9,447.3,0,499.6,0c55.5,0,90.8,72.8,100.7,245.2H570.6C562.2,112,536.1,69.4,499.2,69.4s-59.4,57.1-59.4,140c0,90.7,36,114.2,75.3,135.4,43.6,22.4,87.6,63.9,87.6,201.6,0,127.6-33.7,220.5-92,220.5C446.5,766.9,413.2,686.3,401.7,521.7Z" transform="translate(21.8)"/><path class="cls-2" d="M636,470.8V1.2h28.5V467.4c0,156.6,22.3,229.2,74.6,229.2s72.1-70.3,72.1-225.8V1.2h28.2V470.8c0,200.8-34.5,296.1-100.7,296.1C669.3,766.9,636,668.2,636,470.8Z" transform="translate(21.8)"/><path class="cls-2" d="M1016.2,653.9,1101.5,1.2h46.7V766.9h-27.7V72.7l-92.8,694.2h-24.6L913.9,76.1V766.9H886.2V1.2h48.4Z" transform="translate(21.8)"/><path class="cls-2" d="M1322.3,399h-96.7V694.3H1381v72.6H1197V1.2h175.3V73.8H1225.6V326.4h96.7Z" transform="translate(21.8)"/></svg>